<?xml version="1.0" standalone="no"?>
<!DOCTYPE svg PUBLIC "-//W3C//DTD SVG 20010904//EN"
 "http://www.w3.org/TR/2001/REC-SVG-20010904/DTD/svg10.dtd">
<svg version="1.0" xmlns="http://www.w3.org/2000/svg"
 width="1800.000000pt" height="888.000000pt" viewBox="0 0 1800.000000 888.000000"
 preserveAspectRatio="xMidYMid meet">
<metadata>
Created by potrace 1.16, written by Peter Selinger 2001-2019
</metadata>
<g transform="translate(0.000000,888.000000) scale(0.100000,-0.100000)"
fill="#000000" stroke="none">
<path d="M10730 7332 c-361 -120 -589 -569 -442 -870 56 -115 171 -182 311
-182 149 0 281 60 407 185 91 91 150 184 191 300 24 70 27 95 28 200 0 114 -2
123 -32 187 -37 78 -91 135 -159 169 -66 33 -221 38 -304 11z"/>
<path d="M12438 6409 c-15 -8 -487 -590 -771 -950 l-107 -137 -158 157 c-168
167 -271 247 -398 309 -216 107 -356 112 -445 15 -87 -94 -96 -181 -28 -279
43 -62 172 -189 269 -265 159 -125 316 -211 550 -304 176 -70 247 -80 327 -46
65 29 89 55 218 236 172 241 275 428 362 654 180 472 229 637 181 610z"/>
<path d="M9670 6174 c-320 -37 -634 -121 -811 -215 -141 -75 -237 -251 -297
-542 -17 -83 -27 -106 -59 -147 -21 -26 -157 -196 -302 -378 l-264 -330 -111
112 c-131 133 -221 203 -331 257 -193 94 -303 86 -375 -28 -61 -96 -36 -158
121 -308 113 -107 232 -188 383 -261 325 -155 406 -153 529 14 159 217 237
350 307 517 58 142 61 147 56 105 -2 -19 0 -123 5 -230 12 -294 20 -344 48
-292 6 10 95 279 200 596 104 318 197 586 206 596 16 18 33 19 214 18 226 -1
341 14 494 66 54 18 100 29 102 26 2 -4 9 -38 15 -77 27 -171 -48 -418 -168
-553 -36 -40 -45 -45 -111 -56 -89 -15 -165 -51 -243 -116 -108 -90 -143 -180
-104 -271 28 -67 177 -197 321 -280 221 -127 442 -202 895 -302 91 -20 168
-40 172 -44 5 -4 -312 -350 -703 -770 -391 -419 -709 -765 -706 -767 5 -5 569
297 797 428 480 275 829 526 1080 778 125 124 271 306 297 367 32 79 3 177
-81 270 -105 116 -591 399 -895 522 -64 25 -116 51 -117 56 0 6 14 42 32 81
84 182 119 353 111 547 -8 207 -56 341 -164 457 -63 68 -126 104 -229 130 -77
19 -244 32 -314 24z"/>
<path d="M7275 6142 c-80 -27 -145 -70 -211 -138 -175 -180 -218 -456 -93
-598 53 -60 103 -85 183 -93 265 -25 544 281 523 574 -13 174 -114 273 -276
273 -45 -1 -96 -8 -126 -18z"/>
<path d="M6424 5229 c-247 -22 -582 -125 -676 -208 -76 -66 -136 -202 -179
-399 -36 -168 -39 -762 -4 -762 17 0 14 -7 180 499 79 245 149 449 155 455 5
5 91 10 197 11 192 2 261 13 392 60 24 8 47 13 50 9 3 -3 6 -60 6 -127 -1
-112 -3 -128 -32 -199 -17 -42 -51 -106 -76 -141 -45 -63 -47 -64 -101 -70
-103 -10 -236 -98 -276 -183 -42 -86 -11 -152 122 -258 164 -132 394 -225 768
-311 113 -26 206 -48 207 -49 1 0 -212 -231 -474 -511 -619 -665 -647 -695
-642 -700 6 -5 504 264 699 377 408 238 726 487 909 712 99 121 115 152 115
212 0 45 -5 61 -39 109 -49 71 -72 91 -245 198 -161 101 -365 207 -490 257
-47 18 -88 36 -93 40 -4 3 8 40 27 81 75 162 105 384 73 536 -31 143 -110 264
-206 312 -86 44 -226 63 -367 50z"/>
<path d="M9078 4494 c-55 -17 -129 -81 -221 -192 -80 -97 -1677 -2334 -1729
-2422 -43 -74 -46 -86 -18 -95 35 -11 95 42 885 785 528 496 761 725 1061
1042 257 272 301 327 336 423 30 85 30 227 -1 307 -52 134 -176 194 -313 152z"/>
<path d="M5975 3905 c-84 -30 -165 -133 -851 -1095 -363 -509 -673 -947 -689
-973 -24 -43 -26 -50 -13 -63 13 -13 24 -7 94 49 171 139 1114 1035 1354 1288
294 309 311 328 344 398 27 58 31 76 31 151 0 47 -6 102 -13 123 -39 109 -148
161 -257 122z"/>
<path d="M1180 3799 c-350 -26 -574 -101 -711 -238 -36 -36 -78 -90 -93 -118
-56 -112 -56 -106 -56 -883 0 -799 -3 -763 70 -802 30 -17 52 -19 160 -16 141
5 178 17 207 71 17 29 18 87 23 722 4 618 7 693 22 720 36 66 110 113 220 141
46 12 125 17 292 20 256 4 281 10 323 73 33 48 33 168 1 231 -40 77 -60 85
-211 86 -73 1 -184 -2 -247 -7z"/>
<path d="M1823 3791 c-82 -38 -78 5 -81 -783 -3 -758 -2 -779 53 -890 90 -185
296 -298 645 -353 140 -22 880 -39 1120 -25 559 32 879 152 1013 380 57 98 57
101 57 870 0 651 -1 708 -18 739 -30 61 -60 75 -170 79 -172 7 -248 -23 -272
-109 -6 -21 -10 -298 -10 -710 l0 -676 -23 -34 c-50 -74 -168 -117 -377 -139
-79 -8 -281 -10 -650 -7 -499 4 -541 5 -630 25 -117 26 -216 75 -247 121 l-23
34 0 657 c0 402 -4 678 -10 711 -19 100 -76 129 -248 129 -64 0 -98 -6 -129
-19z"/>
<path d="M11680 3804 c-14 -2 -65 -9 -115 -15 -239 -30 -465 -122 -594 -243
-66 -62 -112 -133 -143 -217 -23 -63 -23 -68 -23 -539 0 -546 1 -556 85 -683
93 -144 243 -248 432 -301 154 -44 280 -57 614 -63 295 -5 312 -5 355 14 61
27 82 71 81 171 -2 99 -28 157 -86 183 -34 15 -66 19 -182 19 -169 0 -373 16
-469 35 -93 20 -204 74 -255 125 -52 52 -87 127 -96 203 l-7 57 1146 0 c845 0
1153 3 1171 12 14 6 35 30 46 53 19 39 20 61 20 372 0 297 -2 338 -19 392 -41
131 -124 220 -281 300 -137 70 -242 101 -410 121 -77 9 -1209 12 -1270 4z
m800 -384 c417 -16 615 -60 698 -155 l32 -36 0 -139 0 -140 -970 0 -970 0 0
135 c0 175 10 196 115 248 111 56 252 76 595 86 135 4 250 8 255 9 6 1 116 -3
245 -8z"/>
<path d="M14645 3803 c-242 -13 -460 -59 -599 -127 -146 -72 -231 -161 -287
-301 l-24 -60 -3 -730 c-3 -816 -6 -773 68 -823 33 -22 42 -23 160 -20 104 2
131 6 160 23 73 43 70 12 70 755 0 427 4 678 10 702 22 79 95 134 226 169 67
19 112 22 298 25 122 2 233 8 252 14 79 26 116 117 95 228 -14 73 -38 109 -86
132 -41 20 -138 24 -340 13z"/>
<path d="M15998 3799 c-541 -28 -805 -169 -850 -454 -15 -96 -4 -264 22 -347
57 -183 241 -310 530 -367 143 -29 241 -33 790 -40 567 -7 587 -8 650 -29 115
-39 140 -73 140 -193 0 -102 -19 -139 -88 -178 -103 -56 -73 -55 -1037 -61
-836 -5 -892 -6 -923 -23 -49 -27 -75 -92 -76 -188 0 -89 20 -131 74 -161 34
-18 68 -18 960 -15 1016 3 995 2 1186 66 198 67 324 190 369 362 23 85 20 350
-4 428 -61 196 -222 312 -506 367 -76 14 -188 18 -710 24 -661 8 -699 11 -814
61 -28 12 -63 35 -76 51 -23 27 -25 38 -25 120 0 87 1 91 30 118 68 64 185 79
605 80 246 0 284 2 315 18 54 27 75 73 74 163 -1 101 -28 159 -88 188 -38 19
-59 21 -222 19 -98 0 -245 -4 -326 -9z"/>
<path d="M5135 1760 c-264 -4 -536 -8 -605 -10 l-125 -3 155 -9 c212 -13 3323
-15 3625 -3 l240 10 -200 6 c-335 11 -2579 17 -3090 9z"/>
<path d="M6705 1680 c39 -4 909 -8 1935 -8 1026 0 1897 4 1935 8 39 4 -832 7
-1935 7 -1103 0 -1973 -3 -1935 -7z"/>
<path d="M4200 1588 c-635 -4 -1229 -11 -1320 -16 l-165 -8 310 -9 c405 -13
4987 -13 5390 0 l310 9 -150 8 c-137 6 -2906 30 -3125 26 -52 -1 -615 -5
-1250 -10z"/>
</g>
</svg>
